<svg width="125" height="50" viewBox="0 0 125 50" fill="none" xmlns="http://www.w3.org/2000/svg">
<path d="M0 40.7967H40.3673V29.533H31.8027L30.7846 31.5247H14.9131L23.1184 18.956V36.1951L21.6809 36.9506V49.0385H33.7792V0.961538H24.6756L0 40.7967Z" fill="#383B41"/>
<path d="M56.6832 25C56.6832 22.8938 56.8429 20.9936 57.1623 19.2994C57.5217 17.6053 58.0008 16.163 58.5998 14.9725C59.1987 13.7821 59.9174 12.8892 60.7559 12.294C61.5944 11.6529 62.5127 11.3324 63.5109 11.3324C64.549 11.3324 65.4674 11.6529 66.266 12.294C67.1044 12.8892 67.8231 13.7821 68.4221 14.9725C69.0609 16.163 69.5401 17.6053 69.8595 19.2994C70.2188 20.9936 70.3985 22.8938 70.3985 25C70.3985 27.1062 70.2188 29.0064 69.8595 30.7005C69.5401 32.3947 69.0609 33.837 68.4221 35.0275C67.8231 36.2179 67.1044 37.1337 66.266 37.7747C65.4674 38.37 64.549 38.6676 63.5109 38.6676C62.5127 38.6676 61.5944 38.37 60.7559 37.7747C59.9174 37.1337 59.1987 36.2179 58.5998 35.0275C58.0008 33.837 57.5217 32.3947 57.1623 30.7005C56.8429 29.0064 56.6832 27.1062 56.6832 25ZM45.5433 25C45.5433 30.3571 46.3019 34.8901 47.8192 38.5989C49.3364 42.3077 51.4327 45.1465 54.1079 47.1154C56.823 49.0385 59.9573 50 63.5109 50C67.2242 50 70.4185 49.0385 73.0937 47.1154C75.8088 45.1465 77.885 42.3077 79.3224 38.5989C80.7998 34.8901 81.5384 30.3571 81.5384 25C81.5384 19.6429 80.7998 15.1099 79.3224 11.4011C77.885 7.69231 75.8088 4.87638 73.0937 2.9533C70.4185 0.984433 67.2242 0 63.5109 0C59.9573 0 56.823 0.984433 54.1079 2.9533C51.4327 4.87638 49.3364 7.69231 47.8192 11.4011C46.3019 15.1099 45.5433 19.6429 45.5433 25Z" fill="#383B41"/>
<path d="M84.6327 40.7967H125V29.533H116.435L115.417 31.5247H99.5459L107.751 18.956V36.1951L106.314 36.9506V49.0385H118.412V0.961538H109.308L84.6327 40.7967Z" fill="#383B41"/>
</svg>
