<svg width="20" height="20" viewBox="0 0 20 20" fill="none" xmlns="http://www.w3.org/2000/svg">
<path d="M19.125 15.75H17.875V7C18.0408 7 18.1997 6.93415 18.3169 6.81694C18.4342 6.69973 18.5 6.54076 18.5 6.375C18.5 6.20924 18.4342 6.05027 18.3169 5.93306C18.1997 5.81585 18.0408 5.75 17.875 5.75H14.125V3.25C14.2908 3.25 14.4497 3.18415 14.5669 3.06694C14.6842 2.94973 14.75 2.79076 14.75 2.625C14.75 2.45924 14.6842 2.30027 14.5669 2.18306C14.4497 2.06585 14.2908 2 14.125 2H2.875C2.70924 2 2.55027 2.06585 2.43306 2.18306C2.31585 2.30027 2.25 2.45924 2.25 2.625C2.25 2.79076 2.31585 2.94973 2.43306 3.06694C2.55027 3.18415 2.70924 3.25 2.875 3.25V15.75H1.625C1.45924 15.75 1.30027 15.8158 1.18306 15.9331C1.06585 16.0503 1 16.2092 1 16.375C1 16.5408 1.06585 16.6997 1.18306 16.8169C1.30027 16.9342 1.45924 17 1.625 17H19.125C19.2908 17 19.4497 16.9342 19.5669 16.8169C19.6842 16.6997 19.75 16.5408 19.75 16.375C19.75 16.2092 19.6842 16.0503 19.5669 15.9331C19.4497 15.8158 19.2908 15.75 19.125 15.75ZM16.625 7V15.75H14.125V7H16.625ZM4.125 3.25H12.875V15.75H11V12C11 11.8342 10.9342 11.6753 10.8169 11.5581C10.6997 11.4408 10.5408 11.375 10.375 11.375H6.625C6.45924 11.375 6.30027 11.4408 6.18306 11.5581C6.06585 11.6753 6 11.8342 6 12V15.75H4.125V3.25ZM9.75 15.75H7.25V12.625H9.75V15.75ZM5.375 5.75C5.375 5.58424 5.44085 5.42527 5.55806 5.30806C5.67527 5.19085 5.83424 5.125 6 5.125H7.25C7.41576 5.125 7.57473 5.19085 7.69194 5.30806C7.80915 5.42527 7.875 5.58424 7.875 5.75C7.875 5.91576 7.80915 6.07473 7.69194 6.19194C7.57473 6.30915 7.41576 6.375 7.25 6.375H6C5.83424 6.375 5.67527 6.30915 5.55806 6.19194C5.44085 6.07473 5.375 5.91576 5.375 5.75ZM9.125 5.75C9.125 5.58424 9.19085 5.42527 9.30806 5.30806C9.42527 5.19085 9.58424 5.125 9.75 5.125H11C11.1658 5.125 11.3247 5.19085 11.4419 5.30806C11.5592 5.42527 11.625 5.58424 11.625 5.75C11.625 5.91576 11.5592 6.07473 11.4419 6.19194C11.3247 6.30915 11.1658 6.375 11 6.375H9.75C9.58424 6.375 9.42527 6.30915 9.30806 6.19194C9.19085 6.07473 9.125 5.91576 9.125 5.75ZM5.375 8.875C5.375 8.70924 5.44085 8.55027 5.55806 8.43306C5.67527 8.31585 5.83424 8.25 6 8.25H7.25C7.41576 8.25 7.57473 8.31585 7.69194 8.43306C7.80915 8.55027 7.875 8.70924 7.875 8.875C7.875 9.04076 7.80915 9.19973 7.69194 9.31694C7.57473 9.43415 7.41576 9.5 7.25 9.5H6C5.83424 9.5 5.67527 9.43415 5.55806 9.31694C5.44085 9.19973 5.375 9.04076 5.375 8.875ZM9.125 8.875C9.125 8.70924 9.19085 8.55027 9.30806 8.43306C9.42527 8.31585 9.58424 8.25 9.75 8.25H11C11.1658 8.25 11.3247 8.31585 11.4419 8.43306C11.5592 8.55027 11.625 8.70924 11.625 8.875C11.625 9.04076 11.5592 9.19973 11.4419 9.31694C11.3247 9.43415 11.1658 9.5 11 9.5H9.75C9.58424 9.5 9.42527 9.43415 9.30806 9.31694C9.19085 9.19973 9.125 9.04076 9.125 8.875Z" fill="white"/>
</svg>
