<svg width="34" height="34" viewBox="0 0 34 34" fill="none" xmlns="http://www.w3.org/2000/svg">
<path d="M29.75 17C29.75 17.2818 29.6381 17.552 29.4388 17.7513C29.2395 17.9506 28.9693 18.0625 28.6875 18.0625H5.3125C5.03071 18.0625 4.76046 17.9506 4.5612 17.7513C4.36194 17.552 4.25 17.2818 4.25 17C4.25 16.7182 4.36194 16.448 4.5612 16.2487C4.76046 16.0494 5.03071 15.9375 5.3125 15.9375H28.6875C28.9693 15.9375 29.2395 16.0494 29.4388 16.2487C29.6381 16.448 29.75 16.7182 29.75 17ZM5.3125 9.5625H28.6875C28.9693 9.5625 29.2395 9.45056 29.4388 9.2513C29.6381 9.05204 29.75 8.78179 29.75 8.5C29.75 8.21821 29.6381 7.94796 29.4388 7.7487C29.2395 7.54944 28.9693 7.4375 28.6875 7.4375H5.3125C5.03071 7.4375 4.76046 7.54944 4.5612 7.7487C4.36194 7.94796 4.25 8.21821 4.25 8.5C4.25 8.78179 4.36194 9.05204 4.5612 9.2513C4.76046 9.45056 5.03071 9.5625 5.3125 9.5625ZM28.6875 24.4375H5.3125C5.03071 24.4375 4.76046 24.5494 4.5612 24.7487C4.36194 24.948 4.25 25.2182 4.25 25.5C4.25 25.7818 4.36194 26.052 4.5612 26.2513C4.76046 26.4506 5.03071 26.5625 5.3125 26.5625H28.6875C28.9693 26.5625 29.2395 26.4506 29.4388 26.2513C29.6381 26.052 29.75 25.7818 29.75 25.5C29.75 25.2182 29.6381 24.948 29.4388 24.7487C29.2395 24.5494 28.9693 24.4375 28.6875 24.4375Z" fill="#033F87"/>
</svg>
