<svg width="21" height="21" viewBox="0 0 21 21" fill="none" xmlns="http://www.w3.org/2000/svg">
<path d="M10.25 0.25C8.27219 0.25 6.33879 0.83649 4.6943 1.9353C3.04981 3.03412 1.76809 4.5959 1.01121 6.42316C0.254333 8.25042 0.0562995 10.2611 0.442152 12.2009C0.828004 14.1407 1.78041 15.9225 3.17894 17.3211C4.57746 18.7196 6.35929 19.672 8.2991 20.0578C10.2389 20.4437 12.2496 20.2457 14.0768 19.4888C15.9041 18.7319 17.4659 17.4502 18.5647 15.8057C19.6635 14.1612 20.25 12.2278 20.25 10.25C20.2472 7.59869 19.1927 5.05678 17.318 3.18202C15.4432 1.30727 12.9013 0.2528 10.25 0.25ZM10.25 18.7115C8.57647 18.7115 6.94052 18.2153 5.54902 17.2855C4.15753 16.3557 3.073 15.0342 2.43256 13.4881C1.79213 11.9419 1.62456 10.2406 1.95105 8.59923C2.27754 6.95786 3.08343 5.45016 4.26679 4.26679C5.45016 3.08342 6.95786 2.27754 8.59924 1.95105C10.2406 1.62456 11.9419 1.79212 13.4881 2.43256C15.0342 3.07299 16.3557 4.15753 17.2855 5.54902C18.2153 6.94051 18.7115 8.57646 18.7115 10.25C18.709 12.4934 17.8167 14.6441 16.2304 16.2304C14.6441 17.8167 12.4934 18.709 10.25 18.7115ZM14.0962 12.1731C14.0962 12.8871 13.8125 13.5719 13.3076 14.0768C12.8027 14.5817 12.1179 14.8654 11.4038 14.8654H11.0192V15.6346C11.0192 15.8386 10.9382 16.0343 10.7939 16.1785C10.6497 16.3228 10.454 16.4038 10.25 16.4038C10.046 16.4038 9.85033 16.3228 9.70607 16.1785C9.56182 16.0343 9.48077 15.8386 9.48077 15.6346V14.8654H7.94231C7.7383 14.8654 7.54264 14.7843 7.39838 14.6401C7.25412 14.4958 7.17308 14.3002 7.17308 14.0962C7.17308 13.8921 7.25412 13.6965 7.39838 13.5522C7.54264 13.408 7.7383 13.3269 7.94231 13.3269H11.4038C11.7099 13.3269 12.0034 13.2054 12.2197 12.989C12.4361 12.7726 12.5577 12.4791 12.5577 12.1731C12.5577 11.8671 12.4361 11.5736 12.2197 11.3572C12.0034 11.1408 11.7099 11.0192 11.4038 11.0192H9.09616C8.38211 11.0192 7.69731 10.7356 7.19241 10.2307C6.6875 9.72576 6.40385 9.04097 6.40385 8.32692C6.40385 7.61288 6.6875 6.92808 7.19241 6.42317C7.69731 5.91827 8.38211 5.63461 9.09616 5.63461H9.48077V4.86538C9.48077 4.66137 9.56182 4.46571 9.70607 4.32146C9.85033 4.1772 10.046 4.09615 10.25 4.09615C10.454 4.09615 10.6497 4.1772 10.7939 4.32146C10.9382 4.46571 11.0192 4.66137 11.0192 4.86538V5.63461H12.5577C12.7617 5.63461 12.9574 5.71566 13.1016 5.85992C13.2459 6.00418 13.3269 6.19983 13.3269 6.40384C13.3269 6.60786 13.2459 6.80351 13.1016 6.94777C12.9574 7.09203 12.7617 7.17308 12.5577 7.17308H9.09616C8.79014 7.17308 8.49665 7.29464 8.28026 7.51103C8.06388 7.72742 7.94231 8.0209 7.94231 8.32692C7.94231 8.63294 8.06388 8.92643 8.28026 9.14281C8.49665 9.3592 8.79014 9.48077 9.09616 9.48077H11.4038C12.1179 9.48077 12.8027 9.76442 13.3076 10.2693C13.8125 10.7742 14.0962 11.459 14.0962 12.1731Z" fill="#033F87"/>
</svg>
