<svg width="12" height="13" viewBox="0 0 12 13" fill="none" xmlns="http://www.w3.org/2000/svg">
<g clip-path="url(#clip0_439_5147)">
<path d="M6.02393 1.50302C8.77545 1.50302 11.0059 3.73343 11.0059 6.48495C11.0059 9.23647 8.77545 11.4669 6.02393 11.4669C5.1435 11.4684 4.27855 11.2354 3.51802 10.7918L1.04399 11.4669L1.71755 8.99186C1.27364 8.23109 1.04046 7.36577 1.042 6.48495C1.042 3.73343 3.27241 1.50302 6.02393 1.50302ZM4.32609 4.14345L4.22645 4.14743C4.16203 4.15187 4.09909 4.16879 4.04112 4.19725C3.98711 4.22789 3.93778 4.26615 3.89465 4.31084C3.83487 4.36713 3.80099 4.41596 3.76463 4.46328C3.58035 4.70287 3.48114 4.99701 3.48265 5.29925C3.48364 5.54337 3.54741 5.78101 3.64705 6.0032C3.85081 6.45257 4.1861 6.92834 4.62849 7.36925C4.73511 7.47536 4.83973 7.58197 4.95232 7.68111C5.50204 8.16506 6.15709 8.51408 6.86538 8.70042L7.14835 8.74376C7.24052 8.74874 7.33269 8.74177 7.42535 8.73728C7.57042 8.72963 7.71206 8.69036 7.84034 8.6222C7.90553 8.5885 7.9692 8.55193 8.03115 8.5126C8.03115 8.5126 8.05224 8.49832 8.09343 8.46776C8.16068 8.41794 8.20203 8.38257 8.25783 8.32428C8.29968 8.28111 8.33455 8.23095 8.36245 8.17383C8.40131 8.09262 8.44017 7.93768 8.45611 7.80865C8.46807 7.71001 8.46458 7.65621 8.46309 7.62283C8.46109 7.56952 8.41675 7.51422 8.36843 7.49081L8.07848 7.36078C8.07848 7.36078 7.64505 7.17196 7.38001 7.0514C7.35227 7.03932 7.32256 7.0324 7.29233 7.03097C7.25824 7.02741 7.22378 7.03121 7.19129 7.04213C7.1588 7.05304 7.12904 7.07082 7.10401 7.09424C7.10152 7.09325 7.06814 7.12164 6.70795 7.55806C6.68728 7.58584 6.6588 7.60684 6.62615 7.61837C6.5935 7.6299 6.55815 7.63146 6.52462 7.62283C6.49215 7.61417 6.46035 7.60318 6.42946 7.58995C6.36768 7.56404 6.34626 7.55408 6.30392 7.53614C6.01789 7.41155 5.75313 7.24294 5.51926 7.03645C5.45649 6.98165 5.3982 6.92187 5.33842 6.86408C5.14243 6.67636 4.97162 6.46402 4.83026 6.23237L4.80087 6.18504C4.78007 6.15306 4.76302 6.11879 4.75005 6.08291C4.73112 6.00968 4.78044 5.95089 4.78044 5.95089C4.78044 5.95089 4.9015 5.81837 4.9578 5.74663C5.0126 5.67688 5.05893 5.60913 5.08882 5.5608C5.14761 5.46615 5.16604 5.369 5.13516 5.29377C4.99566 4.95301 4.85152 4.61407 4.70272 4.27696C4.67333 4.2102 4.58615 4.16238 4.50693 4.15291C4.48003 4.14959 4.45313 4.14693 4.42623 4.14494C4.35933 4.1411 4.29226 4.14177 4.22545 4.14693L4.32609 4.14345Z" fill="white"/>
</g>
<defs>
<clipPath id="clip0_439_5147">
<rect width="11.7755" height="11.7755" fill="white" transform="translate(0.136353 0.597198)"/>
</clipPath>
</defs>
</svg>
